<?xml version="1.0" encoding="utf-8"?>
<!-- Generator: Adobe Illustrator 22.0.0, SVG Export Plug-In . SVG Version: 6.00 Build 0)  -->
<svg version="1.1" id="Layer_1" xmlns="http://www.w3.org/2000/svg" xmlns:xlink="http://www.w3.org/1999/xlink" x="0px" y="0px"
	 width="70px" height="70px" viewBox="0 0 70 70" style="enable-background:new 0 0 70 70;" xml:space="preserve">
<style type="text/css">
	.st0{fill:#BD1823;}
	.st1{fill:#FFFFFF;}
</style>
<g>
	<rect x="-0.1" y="0" class="st0" width="70" height="70"/>
	<g>
		<path class="st1" d="M29,22.9c1.2,0.5,2.2,1.4,3,2.5c0.7,1.2,1.1,2.5,1.1,3.9c0,1.9-0.6,3.6-1.9,5c-1.3,1.4-2.9,2-4.8,2H16h-0.3
			V15.1h2.1h6.4c1.6,0,3,0.5,4,1.5c1,1,1.5,2.2,1.5,3.7C29.7,21.2,29.5,22.1,29,22.9z M24.2,17.1h-6.4v5.3h8.5h0.5
			c0.5-0.6,0.8-1.3,0.8-2.1c0-0.9-0.3-1.7-0.9-2.3C26.1,17.4,25.3,17.1,24.2,17.1z M26.1,34.4c1.5,0,2.6-0.5,3.5-1.4
			c0.9-1,1.4-2.1,1.4-3.5c0-1.4-0.4-2.6-1.3-3.6c-0.9-1-2.1-1.4-3.5-1.4h-8.2v10H26.1z"/>
		<path class="st1" d="M46.4,36.8c-3.2,0-5.9-1.1-8-3.2c-2.1-2.1-3.2-4.7-3.2-7.8c0-3.1,1.1-5.7,3.2-7.8c2.1-2.1,4.8-3.2,8-3.2
			c2.3,0,4.4,0.7,6.3,2c1.8,1.3,3.1,3,3.7,5.1h-2.3c-0.6-1.5-1.6-2.7-3-3.6c-1.4-0.9-3-1.4-4.7-1.4c-2.7,0-4.8,0.9-6.5,2.6
			c-1.7,1.7-2.5,3.8-2.5,6.4c0,2.5,0.8,4.6,2.5,6.4c1.7,1.7,3.9,2.6,6.5,2.6c1.7,0,3.3-0.5,4.7-1.4c1.4-0.9,2.4-2.1,3-3.6h2.3
			c-0.7,2.1-1.9,3.8-3.7,5.1C50.8,36.1,48.7,36.8,46.4,36.8z"/>
		<path class="st1" d="M19.5,54.7c-1.3,0-2.3-0.3-3.1-1c-0.8-0.7-1.2-1.6-1.2-2.9h2.3c0,1.1,0.7,1.6,2,1.6c0.6,0,1-0.1,1.3-0.3
			c0.3-0.2,0.4-0.5,0.4-0.9c0-0.4-0.2-0.7-0.5-0.9c-0.3-0.2-0.9-0.5-1.6-0.7c-0.3-0.1-0.5-0.2-0.5-0.2c-0.1,0-0.2-0.1-0.5-0.2
			c-0.3-0.1-0.5-0.2-0.5-0.2c-0.1-0.1-0.2-0.1-0.5-0.3c-0.2-0.1-0.4-0.2-0.5-0.3c-0.1-0.1-0.2-0.2-0.4-0.4c-0.2-0.1-0.3-0.3-0.4-0.4
			c-0.1-0.1-0.1-0.3-0.2-0.5c-0.1-0.2-0.2-0.4-0.2-0.6c0-0.2-0.1-0.4-0.1-0.7c0-1.1,0.4-1.9,1.1-2.5c0.8-0.6,1.7-0.9,2.7-0.9
			c1.1,0,2.1,0.3,2.8,1c0.8,0.7,1.2,1.6,1.2,2.8h-2.3c0-1-0.6-1.6-1.7-1.6c-0.5,0-0.8,0.1-1.1,0.3c-0.3,0.2-0.4,0.5-0.4,0.9
			c0,0.4,0.2,0.7,0.5,0.9c0.3,0.2,0.8,0.5,1.4,0.7c1.2,0.4,1.9,0.7,2.3,1c1.1,0.7,1.6,1.6,1.6,2.8c0,1.1-0.4,1.9-1.2,2.6
			C21.6,54.4,20.6,54.7,19.5,54.7z"/>
		<path class="st1" d="M35.3,52.9c-1.2,1.2-2.7,1.8-4.4,1.8c-1.7,0-3.2-0.6-4.4-1.8c-1.2-1.2-1.8-2.6-1.8-4.4c0-1.7,0.6-3.2,1.8-4.4
			c1.2-1.2,2.6-1.8,4.4-1.8c1.7,0,3.2,0.6,4.4,1.8c1.2,1.2,1.8,2.6,1.8,4.4C37.1,50.3,36.5,51.7,35.3,52.9z M28.3,51.3
			c0.7,0.7,1.6,1.1,2.7,1.1s2-0.4,2.7-1.1c0.7-0.7,1.1-1.7,1.1-2.8c0-1.1-0.4-2.1-1.1-2.8C33,45,32.1,44.6,31,44.6s-2,0.4-2.7,1.1
			c-0.7,0.7-1.1,1.7-1.1,2.8C27.2,49.7,27.5,50.6,28.3,51.3z"/>
		<path class="st1" d="M46.1,44.8h-4.6v3H46v2.2h-4.5v4.4h-2.3V42.6h2.3h4.6V44.8z"/>
		<path class="st1" d="M55.7,42.6v2.2h-2.9v9.6h-2.3v-9.6h-2.8v-2.2h5.2H55.7z"/>
	</g>
</g>
</svg>
